<svg width="94" height="43" viewBox="0 0 94 43" fill="none" xmlns="http://www.w3.org/2000/svg">
<path d="M53.1871 15.9259L35.7732 23.9506L18.765 14L14.2221 16.0865L25.9846 28.3642L14.8981 33.4734L5.65044 28.8991L2 31.2798L13.5461 40L35.6109 32.7779L61.8129 20.6873C62.101 20.5604 62.3548 20.368 62.5534 20.1256C62.7521 19.8833 62.8899 19.5978 62.9558 19.2927C63.0217 18.9875 63.0138 18.6711 62.9327 18.3696C62.8515 18.0681 62.6994 17.7898 62.4889 17.5575C61.3049 16.3587 59.7712 15.5566 58.103 15.264C56.4347 14.9713 54.7156 15.2028 53.1871 15.9259V15.9259Z" stroke="black" stroke-width="3" stroke-linecap="round" stroke-linejoin="round"/>
</svg>
