<svg width="44" height="45" viewBox="0 0 44 45" fill="none" xmlns="http://www.w3.org/2000/svg">
<g clip-path="url(#clip0_740_11188)">
<path d="M22.0061 40.3545C32.1398 40.3545 40.3547 32.1395 40.3547 22.0059C40.3547 11.8722 32.1398 3.65723 22.0061 3.65723C11.8724 3.65723 3.65748 11.8722 3.65748 22.0059C3.65748 32.1395 11.8724 40.3545 22.0061 40.3545Z" stroke="black" stroke-width="3" stroke-linejoin="round"/>
<path d="M22.0061 10.9971V22.0062L29.3456 26.8992" stroke="black" stroke-width="3" stroke-linejoin="round"/>
<path d="M33.0153 37.9082L37.9083 44.0244" stroke="black" stroke-width="3" stroke-linejoin="round"/>
<path d="M10.9969 37.9082L6.10398 44.0244" stroke="black" stroke-width="3" stroke-linejoin="round"/>
<path d="M32.3914 2.97285L33.5046 2.22665C34.6539 1.46272 36.032 1.11969 37.4053 1.25569C38.7786 1.39168 40.0626 1.99834 41.0398 2.97285V2.97285C42.0143 3.94999 42.6209 5.23403 42.7569 6.60733C42.8929 7.98064 42.5499 9.35873 41.786 10.508L41.0398 11.6212" stroke="black" stroke-width="3" stroke-linejoin="round"/>
<path d="M11.6208 2.97285L10.5077 2.22665C9.35837 1.46272 7.98028 1.11969 6.60698 1.25569C5.23367 1.39168 3.94964 1.99834 2.97249 2.97285V2.97285C1.99799 3.94999 1.39133 5.23403 1.25534 6.60733C1.11934 7.98064 1.46239 9.35873 2.22632 10.508L2.97249 11.6212" stroke="black" stroke-width="3" stroke-linejoin="round"/>
</g>
<defs>
<clipPath id="clip0_740_11188">
<rect width="44" height="44.7829" fill="white"/>
</clipPath>
</defs>
</svg>
