<svg width="42" height="40" viewBox="0 0 42 40" fill="none" xmlns="http://www.w3.org/2000/svg">
<g clip-path="url(#clip0_740_11198)">
<path d="M30.1071 36.0889C31.4286 37.5736 33.2419 38.5389 35.2185 38.81C37.195 39.0811 39.204 38.64 40.8812 37.5667C39.5819 36.8309 38.4639 35.817 37.6085 34.5985C36.7531 33.3799 36.1818 31.9875 35.9361 30.5222C38.5545 26.6548 39.6408 21.9626 38.9862 17.3478C38.3317 12.733 35.9824 8.52149 32.3901 5.52293C28.7978 2.52438 24.2162 0.950527 19.5261 1.104C14.836 1.25748 10.3686 3.12745 6.9829 6.35435C3.59718 9.58125 1.53218 13.9373 1.18492 18.5848C0.837655 23.2324 2.23267 27.8434 5.10173 31.5312C7.97079 35.2191 12.1113 37.7234 16.7272 38.5627C21.3431 39.402 26.1085 38.5169 30.1071 36.0778V36.0889Z" stroke="black" stroke-width="3" stroke-linejoin="round"/>
<path d="M12.609 19.9999L18.203 25.5554L29.3911 14.4443" stroke="black" stroke-width="3" stroke-linejoin="round"/>
</g>
<defs>
<clipPath id="clip0_740_11198">
<rect width="42" height="40" fill="white"/>
</clipPath>
</defs>
</svg>
