<svg width="38" height="57" viewBox="0 0 38 57" fill="none" xmlns="http://www.w3.org/2000/svg">
<g clip-path="url(#clip0_809_12798)">
<path d="M18.9999 43.0669H34.1999C34.8718 43.0669 35.5162 42.8 35.9913 42.3249C36.4664 41.8498 36.7333 41.2055 36.7333 40.5336V39.0516C36.7335 38.7173 36.6676 38.3863 36.5394 38.0776C36.4111 37.7689 36.223 37.4886 35.9859 37.2529L32.4139 33.6809C32.1783 33.4438 31.898 33.2558 31.5893 33.1275C31.2806 32.9992 30.9496 32.9333 30.6153 32.9336H7.38459C7.0503 32.9333 6.71928 32.9992 6.41058 33.1275C6.10188 33.2558 5.82161 33.4438 5.58594 33.6809L2.01393 37.2529C1.77685 37.4886 1.58876 37.7689 1.4605 38.0776C1.33224 38.3863 1.26634 38.7173 1.2666 39.0516V40.5336C1.2666 41.2055 1.5335 41.8498 2.0086 42.3249C2.48369 42.8 3.12805 43.0669 3.79994 43.0669H18.9999Z" stroke="black" stroke-width="3" stroke-linejoin="round"/>
<path d="M19.0001 4.34375H26.7368C27.2182 4.34359 27.6948 4.43694 28.1394 4.61847C28.5839 4.8 28.9876 5.06612 29.3273 5.40154V5.40154C29.7135 5.78062 30.0084 6.23993 30.1905 6.74576C30.3726 7.25159 30.4373 7.7911 30.3797 8.3247L28.5987 24.9992C28.5045 25.8851 28.0801 26.7053 27.4075 27.3018C26.7348 27.8982 25.8615 28.2287 24.9559 28.2295H13.0443C12.1387 28.2287 11.2654 27.8982 10.5927 27.3018C9.92009 26.7053 9.49574 25.8851 9.40147 24.9992L7.6205 8.3247C7.56293 7.7911 7.62756 7.25159 7.80967 6.74576C7.99177 6.23993 8.28674 5.78062 8.67289 5.40154V5.40154C9.01257 5.06612 9.41628 4.8 9.86083 4.61847C10.3054 4.43694 10.782 4.34359 11.2634 4.34375H19.0001Z" stroke="black" stroke-width="3" stroke-linejoin="round"/>
<path d="M19 43.0664V56.9997" stroke="black" stroke-width="3" stroke-linejoin="round"/>
<path d="M8.8667 57.0003V54.4669L19 51.9336L29.1334 54.4669V57.0003" stroke="black" stroke-width="3" stroke-linejoin="round"/>
<path d="M35.4666 36.7331V24.0664H37.9999" stroke="black" stroke-width="3" stroke-linejoin="round"/>
<path d="M2.53333 36.7331V24.0664H0" stroke="black" stroke-width="3" stroke-linejoin="round"/>
<path d="M19 32.9339V27.8672" stroke="black" stroke-width="3" stroke-linejoin="round"/>
</g>
<defs>
<clipPath id="clip0_809_12798">
<rect width="38" height="57" fill="white"/>
</clipPath>
</defs>
</svg>
