<svg width="52" height="48" viewBox="0 0 52 48" fill="none" xmlns="http://www.w3.org/2000/svg">
<g clip-path="url(#clip0_809_13149)">
<path d="M43.4254 18.8077V5.53113C43.4254 4.94426 43.1922 4.38144 42.7773 3.96646C42.3623 3.55149 41.7995 3.31836 41.2126 3.31836H3.59558C3.00872 3.31836 2.44589 3.55149 2.03092 3.96646C1.61594 4.38144 1.38281 4.94426 1.38281 5.53113V35.4035C1.38281 35.9903 1.61594 36.5532 2.03092 36.9681C2.44589 37.3831 3.00872 37.6162 3.59558 37.6162H23.5105" stroke="black" stroke-width="3" stroke-miterlimit="10"/>
<path d="M35.6807 0V6.6383" stroke="black" stroke-width="3" stroke-miterlimit="10"/>
<path d="M29.0425 0V6.6383" stroke="black" stroke-width="3" stroke-miterlimit="10"/>
<path d="M22.4043 0V6.6383" stroke="black" stroke-width="3" stroke-miterlimit="10"/>
<path d="M15.7661 0V6.6383" stroke="black" stroke-width="3" stroke-miterlimit="10"/>
<path d="M9.12744 0V6.6383" stroke="black" stroke-width="3" stroke-miterlimit="10"/>
<path d="M38.4466 45.9146C45.168 45.9146 50.6168 40.4659 50.6168 33.7444C50.6168 27.023 45.168 21.5742 38.4466 21.5742C31.7252 21.5742 26.2764 27.023 26.2764 33.7444C26.2764 40.4659 31.7252 45.9146 38.4466 45.9146Z" stroke="black" stroke-width="3" stroke-miterlimit="10"/>
<path d="M43.4254 13.2773H1.38281" stroke="black" stroke-width="3" stroke-miterlimit="10"/>
<path d="M31.8086 32.6375L36.2341 38.1694L45.0852 29.3184" stroke="black" stroke-width="3" stroke-miterlimit="10"/>
</g>
<defs>
<clipPath id="clip0_809_13149">
<rect width="52" height="47.2979" fill="white"/>
</clipPath>
</defs>
</svg>
