<svg width="50" height="45" viewBox="0 0 50 45" fill="none" xmlns="http://www.w3.org/2000/svg">
<g clip-path="url(#clip0_809_13160)">
<path d="M9.74998 30.3034C14.3332 35.1557 19.4489 39.4759 25 43.1822C25 43.1822 48.4848 28.0307 48.4848 14.0155C48.447 11.2682 47.5175 8.60758 45.8362 6.43443C44.155 4.26129 41.8131 2.69333 39.1633 1.96678C36.5135 1.24023 33.6994 1.39443 31.1448 2.40615C28.5903 3.41787 26.4337 5.23232 25 7.57615C23.5662 5.23232 21.4097 3.41787 18.8551 2.40615C16.3006 1.39443 13.4865 1.24023 10.8367 1.96678C8.18691 2.69333 5.84499 4.26129 4.16373 6.43443C2.48247 8.60758 1.55293 11.2682 1.51514 14.0155C1.51514 17.9625 3.37877 21.9928 6.06059 25.758" stroke="black" stroke-width="3" stroke-linecap="round" stroke-linejoin="round"/>
<path d="M1.51514 25.756H12.8788L15.1515 21.9681L18.9394 29.5439L25 13.6348L29.5454 25.756H35.606" stroke="black" stroke-width="3" stroke-linecap="round" stroke-linejoin="round"/>
</g>
<defs>
<clipPath id="clip0_809_13160">
<rect width="50" height="44.697" fill="white"/>
</clipPath>
</defs>
</svg>
