<svg width="87" height="95" viewBox="0 0 87 95" fill="none" xmlns="http://www.w3.org/2000/svg">
<path d="M48.8049 42.9456C49.4961 42.7552 50.2102 42.6618 50.9268 42.6683C52.6056 42.6683 54.2466 43.1688 55.6424 44.1064C57.0382 45.0441 58.1261 46.3769 58.7685 47.9362C59.411 49.4955 59.5791 51.2113 59.2516 52.8667C58.9241 54.522 58.1157 56.0426 56.9286 57.236C55.7416 58.4295 54.2292 59.2422 52.5827 59.5715C50.9363 59.9007 49.2297 59.7317 47.6787 59.0858C46.1278 58.44 44.8021 57.3462 43.8695 55.9429C42.9368 54.5395 42.439 52.8896 42.439 51.2019C42.4326 50.4813 42.5255 49.7634 42.7149 49.0685" stroke="white" stroke-width="3" stroke-linejoin="round"/>
<path d="M40.3171 32.7256C44.7754 30.1376 50.0174 29.2674 55.0666 30.2771C60.1158 31.2868 64.6276 34.1075 67.7616 38.2137C70.8956 42.32 72.4379 47.4316 72.1013 52.5964C71.7646 57.7611 69.5719 62.6267 65.9316 66.2865C62.2914 69.9464 57.4519 72.1509 52.3149 72.4894C47.1778 72.8279 42.0936 71.2773 38.0094 68.1264C33.9252 64.9755 31.1196 60.4393 30.1153 55.3629C29.111 50.2865 29.9766 45.0162 32.5507 40.5339" stroke="white" stroke-width="3" stroke-linejoin="round"/>
<path d="M31.1291 23.4661C38.056 18.468 46.5999 16.2733 55.0625 17.3181C63.5252 18.3628 71.287 22.5707 76.8054 29.1052C82.3238 35.6398 85.1948 44.0226 84.8476 52.5877C84.5005 61.1528 80.9606 69.273 74.9317 75.3345C68.9027 81.3959 60.8261 84.9548 52.3069 85.3038C43.7878 85.6529 35.4499 82.7665 28.9504 77.2183C22.4509 71.6702 18.2656 63.8664 17.2265 55.3582C16.1873 46.8499 18.3702 38.26 23.3415 31.2956" stroke="white" stroke-width="3" stroke-linejoin="round"/>
<path d="M27.5854 76.8018L16.9756 93.8689" stroke="white" stroke-width="3" stroke-linejoin="round"/>
<path d="M74.2683 76.8018L84.8781 93.8689" stroke="white" stroke-width="3" stroke-linejoin="round"/>
<path d="M23.3415 23.4678L50.9268 51.2019" stroke="white" stroke-width="3" stroke-linecap="round" stroke-linejoin="round"/>
<path d="M12.7317 2.13379L10.6098 10.6674L2.12195 12.8008L12.7317 23.4677H23.3415V12.8008L12.7317 2.13379Z" stroke="white" stroke-width="3" stroke-linecap="round" stroke-linejoin="round"/>
<path d="M10.6097 10.6668L4.2439 4.2666" stroke="white" stroke-width="3" stroke-linecap="round" stroke-linejoin="round"/>
</svg>
