<svg width="101" height="105" viewBox="0 0 101 105" fill="none" xmlns="http://www.w3.org/2000/svg">
<path d="M50.981 26.3116V8.45703" stroke="white" stroke-width="3.5" stroke-miterlimit="10"/>
<path d="M75.0286 39.4682L91.381 31.0107" stroke="white" stroke-width="3.5" stroke-miterlimit="10"/>
<path d="M33.6667 23.4932L37.5143 30.0712" stroke="white" stroke-width="3.5" stroke-miterlimit="10"/>
<path d="M88.4952 53.5635H78.8762" stroke="white" stroke-width="3.5" stroke-miterlimit="10"/>
<path d="M69.2572 23.4932L65.4095 30.0712" stroke="white" stroke-width="3.5" stroke-miterlimit="10"/>
<path d="M25.9714 39.4682L9.61905 31.0107" stroke="white" stroke-width="3.5" stroke-miterlimit="10"/>
<path d="M14.4286 53.5635H23.0857" stroke="white" stroke-width="3.5" stroke-miterlimit="10"/>
<path d="M42.3238 77.9961V87.0173L48.4159 93.0315H54.5079L60.6 87.0173V77.9961" stroke="white" stroke-width="3.5" stroke-miterlimit="10"/>
<path d="M60.8405 77.9961V74.9756C60.8117 73.4789 61.1085 71.9931 61.7116 70.6142C62.3148 69.2354 63.2108 67.9943 64.3418 66.9712C66.1848 65.2749 67.655 63.2372 68.6648 60.9797C69.6746 58.7222 70.2032 56.2913 70.2191 53.832C70.2191 49.0255 68.2429 44.4158 64.7252 41.0171C61.2076 37.6184 56.4366 35.709 51.4619 35.709C46.4872 35.709 41.7162 37.6184 38.1986 41.0171C34.681 44.4158 32.7048 49.0255 32.7048 53.832C32.7236 56.288 33.2506 58.7156 34.2545 60.972C35.2584 63.2284 36.7191 65.2681 38.5507 66.9712C39.6858 67.9928 40.5867 69.2329 41.1951 70.6116C41.8036 71.9903 42.1062 73.4769 42.0833 74.9756V77.9961H60.8405Z" stroke="white" stroke-width="3.5" stroke-miterlimit="10"/>
</svg>
