<svg width="90" height="97" viewBox="0 0 90 97" fill="none" xmlns="http://www.w3.org/2000/svg">
<g clip-path="url(#clip0_663_8236)">
<path d="M19.7178 56.8683V52.4938L6.57268 37.1833L2.56346 30.4904C1.18323 26.9909 3.0016 20.8666 6.57268 19.6855L13.1452 30.6216L21.9086 39.3705C23.691 40.8136 25.9236 41.5875 28.2183 41.5577H33.1257C35.4204 41.5875 37.653 40.8136 39.4354 39.3705L48.1988 30.6216L54.7713 19.6855C58.3424 20.8666 60.1608 26.9909 58.7805 30.4904L54.7713 37.1833L41.6262 52.4938V74.366" stroke="white" stroke-width="3" stroke-miterlimit="10"/>
<path d="M30.6719 19.6841C31.5416 19.66 32.4071 19.8132 33.2155 20.1344C34.0238 20.4556 34.758 20.9381 35.3732 21.5523C35.9884 22.1664 36.4717 22.8994 36.7934 23.7064C37.1152 24.5135 37.2687 25.3775 37.2445 26.2458V28.433C37.2445 30.1732 36.552 31.8422 35.3194 33.0728C34.0868 34.3033 32.4151 34.9946 30.6719 34.9946C28.9288 34.9946 27.2571 34.3033 26.0245 33.0728C24.7919 31.8422 24.0994 30.1732 24.0994 28.433V26.2458C24.0752 25.3775 24.2287 24.5135 24.5504 23.7064C24.8722 22.8994 25.3555 22.1664 25.9707 21.5523C26.5859 20.9381 27.3201 20.4556 28.1284 20.1344C28.9368 19.8132 29.8022 19.66 30.6719 19.6841V19.6841Z" stroke="white" stroke-width="3" stroke-miterlimit="10"/>
<path d="M59.1528 69.9902C58.2823 70.0175 57.4154 69.8665 56.6056 69.5464C55.7958 69.2263 55.0603 68.744 54.4445 68.1292C53.8286 67.5143 53.3455 66.78 53.0248 65.9715C52.7042 65.1631 52.5529 64.2976 52.5803 63.4286V61.2413C52.5803 59.5011 53.2728 57.8321 54.5054 56.6015C55.738 55.371 57.4097 54.6797 59.1528 54.6797C60.896 54.6797 62.5677 55.371 63.8003 56.6015C65.0329 57.8321 65.7254 59.5011 65.7254 61.2413V63.4286C65.7527 64.2976 65.6014 65.1631 65.2808 65.9715C64.9602 66.78 64.4771 67.5143 63.8612 68.1292C63.2453 68.744 62.5098 69.2263 61.7 69.5464C60.8902 69.8665 60.0234 70.0175 59.1528 69.9902V69.9902Z" stroke="white" stroke-width="3" stroke-miterlimit="10"/>
<path d="M46.1831 96.2368V85.3007C46.1831 78.0829 53.9168 76.5519 59.3282 76.5519H61.782C63.9953 76.1897 66.1297 75.4498 68.0916 74.3647L76.855 69.9902L83.4275 54.6797C86.9986 55.8608 88.817 64.1722 87.4368 67.6718L83.2523 76.5519L70.1072 87.488V96.2368" stroke="white" stroke-width="3" stroke-miterlimit="10"/>
<path d="M24.0994 76.5527C24.9699 76.58 25.8368 76.429 26.6466 76.1089C27.4564 75.7888 28.1919 75.3065 28.8077 74.6917C29.4236 74.0768 29.9067 73.3425 30.2274 72.5341C30.548 71.7256 30.6993 70.8601 30.6719 69.9911V67.8038C30.6719 66.0636 29.9794 64.3946 28.7468 63.164C27.5142 61.9335 25.8425 61.2422 24.0994 61.2422C22.3562 61.2422 20.6845 61.9335 19.4519 63.164C18.2193 64.3946 17.5268 66.0636 17.5268 67.8038V69.9911C17.4995 70.8601 17.6508 71.7256 17.9714 72.5341C18.292 73.3425 18.7751 74.0768 19.391 74.6917C20.0069 75.3065 20.7424 75.7888 21.5522 76.1089C22.362 76.429 23.2288 76.58 24.0994 76.5527V76.5527Z" stroke="white" stroke-width="3" stroke-miterlimit="10"/>
<path d="M10.9543 96.2385V91.8641C10.9543 84.6463 18.7757 83.1152 24.0994 83.1152C29.4232 83.1152 37.2445 84.6463 37.2445 91.8641V96.2385" stroke="white" stroke-width="3" stroke-miterlimit="10"/>
<path d="M30.7595 10.9361V0" stroke="white" stroke-width="3" stroke-miterlimit="10"/>
<path d="M39.6104 13.1242L46.1829 6.5625" stroke="white" stroke-width="3" stroke-miterlimit="10"/>
<path d="M22.0838 13.1242L15.5112 6.5625" stroke="white" stroke-width="3" stroke-miterlimit="10"/>
</g>
<defs>
<clipPath id="clip0_663_8236">
<rect width="90" height="96.2376" fill="white"/>
</clipPath>
</defs>
</svg>
