<svg width="100" height="71" viewBox="0 0 100 71" fill="none" xmlns="http://www.w3.org/2000/svg">
<path d="M77.2077 1.57812C74.5432 4.04367 71.7348 6.34869 68.7973 8.48102C66.5054 8.8388 56.1816 3.99836 54.079 3.49327C51.9764 2.98818 31.3709 9.57539 29.836 12.1008C28.3011 14.6263 34.3986 20.519 40.349 19.7614C46.2994 19.0037 55.0673 15.868 57.5483 18.4355C61.7535 22.6446 73.7594 35.2719 79.4785 40.2807C84.2515 44.4898 98.2759 22.6657 98.2759 22.6657" stroke="white" stroke-width="3" stroke-linejoin="round"/>
<path d="M51.8293 62.9464L45.0168 56.0225" stroke="white" stroke-width="3" stroke-linejoin="round"/>
<path d="M63.1202 59.2011L51.1774 46.3213" stroke="white" stroke-width="3" stroke-linejoin="round"/>
<path d="M73.381 53.2249L59.2095 38.5352" stroke="white" stroke-width="3" stroke-linejoin="round"/>
<path d="M27.7964 62.9045C28.187 63.2958 28.6508 63.6063 29.1613 63.8181C29.6718 64.0299 30.219 64.139 30.7716 64.139C31.3242 64.139 31.8715 64.0299 32.382 63.8181C32.8925 63.6063 33.3563 63.2958 33.7468 62.9045L37.4895 59.1584C38.0846 58.2251 38.3437 57.1163 38.2237 56.0156C38.1038 54.9149 37.612 53.8881 36.8298 53.1052C36.0475 52.3223 35.0217 51.8301 33.922 51.71C32.8223 51.5899 31.7146 51.8492 30.7821 52.4449C31.3773 51.5116 31.6363 50.4028 31.5164 49.3021C31.3964 48.2014 30.9047 47.1747 30.1224 46.3917C29.3402 45.6088 28.3144 45.1166 27.2147 44.9965C26.115 44.8764 25.0073 45.1357 24.0748 45.7314C24.6573 44.7964 24.9066 43.6917 24.7823 42.5968C24.658 41.502 24.1674 40.4814 23.3902 39.701C22.613 38.9206 21.5949 38.4263 20.5014 38.2985C19.408 38.1707 18.3035 38.4168 17.3675 38.9969C17.947 38.06 18.1929 36.9545 18.0652 35.86C17.9375 34.7656 17.4437 33.7465 16.664 32.9686C15.8844 32.1907 14.8647 31.6996 13.7709 31.5752C12.677 31.4508 11.5733 31.7003 10.6391 32.2834L6.91755 36.0294C6.52656 36.4204 6.21637 36.8846 6.00475 37.3956C5.79312 37.9065 5.6842 38.4543 5.6842 39.0074C5.6842 39.5605 5.79312 40.1083 6.00475 40.6192C6.21637 41.1302 6.52656 41.5944 6.91755 41.9853L27.7964 62.9045Z" stroke="white" stroke-width="3" stroke-linejoin="round"/>
<path d="M35.45 61.1785L36.7746 62.5044L39.9916 65.7243C44.8907 70.6279 49.4533 67.0291 51.8292 62.9463C53.8275 63.9054 56.1192 64.0533 58.2239 63.3589C60.3287 62.6645 62.0834 61.1817 63.1203 59.2213C68.7973 62.0203 73.7805 56.2118 73.381 53.2233C74.8587 53.1654 76.292 52.7014 77.5236 51.882C78.7553 51.0627 79.7377 49.9197 80.3632 48.5784C80.9887 47.2371 81.2331 45.7493 81.0697 44.2781C80.9062 42.8069 80.3411 41.4092 79.4365 40.2383" stroke="white" stroke-width="3" stroke-linejoin="round"/>
<path d="M1.51385 24.7285L6.01343 29.3796C6.60361 31.1483 7.532 32.7852 8.74683 34.199" stroke="white" stroke-width="3" stroke-linejoin="round"/>
<path d="M30.1093 11.7228L22.5399 4.14648" stroke="white" stroke-width="3" stroke-linejoin="round"/>
<path d="M17.3465 38.9961L10.7443 45.8148" stroke="white" stroke-width="3" stroke-linejoin="round"/>
<path d="M17.3465 38.9961L10.7443 45.8148" stroke="white" stroke-width="3" stroke-linejoin="round"/>
<path d="M24.0749 45.7109L17.4727 52.5296" stroke="white" stroke-width="3" stroke-linejoin="round"/>
<path d="M30.7822 52.4248L24.18 59.2646" stroke="white" stroke-width="3" stroke-linejoin="round"/>
</svg>
